<svg width="191" height="180" viewBox="0 0 191 180" fill="none" xmlns="http://www.w3.org/2000/svg"><circle cx="90" cy="90" r="68" fill="#fff"/><path d="M156.817 142.77C140.854 163.577 115.68 177 87.3578 177H191l-34.183-34.23z" fill="#f06a22"/><path fill-rule="evenodd" clip-rule="evenodd" d="M156.817 142.77c11.229-14.636 17.899-32.927 17.899-52.77.0-48.0488-39.112-87-87.3582-87C39.1114 3 0 41.9512.0 90c0 48.049 39.1114 87 87.3578 87 28.3222.0 53.4962-13.423 69.4592-34.23zM107.111 67.7726C105.42 67.3963 103.974 66.3073 103.145 64.7859L89.1141 39.0276C88.3564 37.6365 86.3592 37.6365 85.6015 39.0276L71.5703 64.7859C70.7416 66.3073 69.2957 67.3963 67.6046 67.7726L39.5155 74.023C38.0013 74.3599 37.4305 76.2176 38.4942 77.3467L57.897 97.9413C59.1164 99.2356 59.6988 101.004 59.4872 102.77L55.981 132.028C55.7934 133.593 57.407 134.75 58.8297 134.07l25.9585-12.415C86.4143 120.877 88.3039 120.872 89.9345 121.64l26.4395 12.459C117.796 134.769 119.399 133.613 119.212 132.052L115.699 102.733C115.49 100.989 116.056 99.24 117.248 97.949l19.027-20.6082C137.321 76.2077 136.745 74.3668 135.24 74.0319l-28.129-6.2593z" fill="#f06a22"/></svg>