<svg width="191" height="180" viewBox="0 0 191 180" fill="none" xmlns="http://www.w3.org/2000/svg"><circle cx="99" cy="90" r="68" fill="#fff"/><path d="M17.7363 127.103 6 166.338 49.2163 163.006C35.6554 154.224 24.6944 141.79 17.7363 127.103z" fill="url(#paint0_linear)"/><path fill-rule="evenodd" clip-rule="evenodd" d="M96.7115 177C144.92 177 184 138.049 184 90c0-48.0488-39.08-87-87.2885-87C48.5035 3 9.42308 41.9512 9.42308 90c0 13.271 2.98142 25.849 8.31322 37.103 6.9581 14.687 17.9191 27.121 31.48 35.903C62.8854 171.858 79.196 177 96.7115 177zM62.0529 82.3235 50.9279 99.3824 88.5817 134.779 142.067 54.1765l-13.692-8.9559L84.3029 99.3824l-22.25-17.0589z" fill="url(#paint1_linear)"/><defs><linearGradient id="paint0_linear" x1="19.6923" y1="27.7353" x2="155.754" y2="158.685" gradientUnits="userSpaceOnUse"><stop stop-color="#ce408c"/><stop offset=".477037" stop-color="#c44499"/><stop offset="1" stop-color="#b54e9d"/></linearGradient><linearGradient id="paint1_linear" x1="19.6923" y1="27.7353" x2="155.754" y2="158.685" gradientUnits="userSpaceOnUse"><stop stop-color="#ce408c"/><stop offset=".477037" stop-color="#c44499"/><stop offset="1" stop-color="#b54e9d"/></linearGradient></defs></svg>